<svg width="28" height="36" viewBox="0 0 28 36" fill="none" xmlns="http://www.w3.org/2000/svg">
<rect x="13.6241" y="1.90527" width="4" height="4" fill="#F339FF"/>
<rect x="13.6241" y="17.9053" width="4" height="4" fill="#F339FF"/>
<rect x="17.6241" y="5.90527" width="4" height="4" fill="#F339FF"/>
<rect x="17.6241" y="9.90527" width="4" height="4" fill="#F339FF"/>
<rect x="17.6241" y="13.9053" width="4" height="4" fill="#F339FF"/>
<rect x="17.6241" y="21.9053" width="4" height="4" fill="#F339FF"/>
<rect x="21.6241" y="25.9053" width="4" height="4" fill="#F339FF"/>
<rect x="9.62415" y="1.90527" width="4" height="4" fill="#F339FF"/>
<rect x="5.62415" y="5.90527" width="4" height="4" fill="#F339FF"/>
<rect x="5.62415" y="9.90527" width="4" height="4" fill="#F339FF"/>
<rect x="5.62415" y="13.9053" width="4" height="4" fill="#F339FF"/>
<rect x="17.6241" y="13.9053" width="4" height="4" fill="#F339FF"/>
<rect x="17.6241" y="5.90527" width="4" height="4" fill="#F339FF"/>
<rect x="17.6241" y="9.90527" width="4" height="4" fill="#F339FF"/>
<rect x="9.62415" y="17.9053" width="4" height="4" fill="#F339FF"/>
<rect x="1.62415" y="29.9053" width="4" height="4" fill="#F339FF"/>
<rect x="5.62415" y="29.9053" width="4" height="4" fill="#F339FF"/>
<rect x="9.62415" y="29.9053" width="4" height="4" fill="#F339FF"/>
<rect x="13.6241" y="29.9053" width="4" height="4" fill="#F339FF"/>
<rect x="17.6241" y="29.9053" width="4" height="4" fill="#F339FF"/>
<rect x="21.6241" y="29.9053" width="4" height="4" fill="#F339FF"/>
<rect x="1.62415" y="25.9053" width="4" height="4" fill="#F339FF"/>
<rect x="5.62415" y="21.9053" width="4" height="4" fill="#F339FF"/>
<rect x="13.6241" y="1.90527" width="4" height="4" fill="#F339FF"/>
</svg>
