<svg width="80" height="80" viewBox="0 0 80 80" fill="none" xmlns="http://www.w3.org/2000/svg">
<rect x="8" y="60" width="8" height="8" fill="#F339FF"/>
<rect x="8" y="68" width="8" height="8" fill="#F339FF"/>
<rect x="8" y="68" width="56" height="8" fill="#F339FF"/>
<rect x="40.0947" y="68" width="8" height="8" fill="#F339FF"/>
<rect x="16.0947" y="68" width="8" height="8" fill="#F339FF"/>
<rect x="48.1895" y="68" width="8" height="8" fill="#F339FF"/>
<rect x="64" y="68" width="8" height="8" fill="#F339FF"/>
<rect x="64" y="60" width="8" height="8" fill="#F339FF"/>
<rect x="32" y="12" width="4" height="4" fill="#F339FF"/>
<rect x="36" y="12" width="4" height="4" fill="#F339FF"/>
<rect x="36" y="8" width="4" height="4" fill="#F339FF"/>
<rect x="32" y="8" width="4" height="4" fill="#F339FF"/>
<rect x="36" y="4" width="4" height="4" fill="#F339FF"/>
<rect x="8" y="56" width="4" height="4" fill="#F339FF"/>
<rect x="12" y="56" width="4" height="4" fill="#F339FF"/>
<rect x="64" y="56" width="4" height="4" fill="#F339FF"/>
<rect x="68" y="56" width="4" height="4" fill="#F339FF"/>
<rect x="40" y="4" width="4" height="4" fill="#F339FF"/>
<rect x="28" y="12" width="4" height="4" fill="#F339FF"/>
<rect x="20" y="20" width="4" height="4" fill="#F339FF"/>
<rect x="12" y="28" width="4" height="4" fill="#F339FF"/>
<rect x="48" y="12" width="4" height="4" fill="#F339FF"/>
<rect x="56" y="20" width="4" height="4" fill="#F339FF"/>
<rect x="64" y="28" width="4" height="4" fill="#F339FF"/>
<rect x="16" y="24" width="8" height="8" fill="#F339FF"/>
<rect x="8" y="32" width="8" height="8" fill="#F339FF"/>
<rect x="32" y="24" width="8" height="8" fill="#F339FF"/>
<rect x="40" y="24" width="8" height="8" fill="#F339FF"/>
<rect x="56" y="24" width="8" height="8" fill="#F339FF"/>
<rect x="24" y="24" width="8" height="8" fill="#F339FF"/>
<rect width="8" height="8" transform="matrix(-1 0 0 1 56 24)" fill="#F339FF"/>
<rect x="16" y="32" width="8" height="8" fill="#F339FF"/>
<rect x="32" y="32" width="8" height="8" fill="#F339FF"/>
<rect x="40" y="32" width="8" height="8" fill="#F339FF"/>
<rect x="32" y="40" width="8" height="8" fill="#F339FF"/>
<rect x="40" y="40" width="8" height="8" fill="#F339FF"/>
<rect x="32" y="48" width="8" height="8" fill="#F339FF"/>
<rect x="40" y="48" width="8" height="8" fill="#F339FF"/>
<rect x="56" y="32" width="8" height="8" fill="#F339FF"/>
<rect x="64" y="32" width="8" height="8" fill="#F339FF"/>
<rect x="24" y="32" width="8" height="8" fill="#F339FF"/>
<rect width="8" height="8" transform="matrix(-1 0 0 1 56 32)" fill="#F339FF"/>
<rect x="40" y="8" width="8" height="8" fill="#F339FF"/>
<rect x="32" y="16" width="8" height="8" fill="#F339FF"/>
<rect x="24" y="16" width="8" height="8" fill="#F339FF"/>
<rect x="48" y="16" width="8" height="8" fill="#F339FF"/>
<rect x="40" y="16" width="8" height="8" fill="#F339FF"/>
</svg>
