<svg width="36" height="36" viewBox="0 0 36 36" fill="none" xmlns="http://www.w3.org/2000/svg">
<rect x="13.5" y="2" width="4" height="4" fill="#F239FF"/>
<rect x="9.50006" y="2" width="4" height="4" fill="#F239FF"/>
<rect x="5.50006" y="2" width="4" height="4" fill="#F239FF"/>
<rect x="1.5" y="6" width="4" height="4" fill="#F239FF"/>
<rect x="1.5" y="10" width="4" height="4" fill="#F239FF"/>
<rect x="1.5" y="14" width="4" height="4" fill="#F239FF"/>
<rect x="1.5" y="18" width="4" height="4" fill="#F239FF"/>
<rect x="9.50006" y="14" width="4" height="4" fill="#F239FF"/>
<rect x="13.5" y="18" width="4" height="4" fill="#F239FF"/>
<rect x="17.5001" y="14" width="4" height="4" fill="#F239FF"/>
<rect x="21.5001" y="10" width="4" height="4" fill="#F239FF"/>
<rect x="5.50006" y="22" width="4" height="4" fill="#F239FF"/>
<rect x="9.50006" y="26" width="4" height="4" fill="#F239FF"/>
<rect x="17.5001" y="2" width="4" height="4" fill="#F239FF"/>
<rect x="21.5001" y="2" width="4" height="4" fill="#F239FF"/>
<rect x="25.5001" y="2" width="4" height="4" fill="#F239FF"/>
<rect x="29.5001" y="6" width="4" height="4" fill="#F239FF"/>
<rect x="29.5001" y="10" width="4" height="4" fill="#F239FF"/>
<rect x="29.5001" y="14" width="4" height="4" fill="#F239FF"/>
<rect x="29.5001" y="18" width="4" height="4" fill="#F239FF"/>
<rect x="17.5001" y="30" width="4" height="4" fill="#F239FF"/>
<rect x="21.5001" y="26" width="4" height="4" fill="#F239FF"/>
<rect x="25.5001" y="22" width="4" height="4" fill="#F239FF"/>
<rect x="13.5" y="30" width="4" height="4" fill="#F239FF"/>
</svg>
