<svg width="64" height="64" viewBox="0 0 64 64" fill="none" xmlns="http://www.w3.org/2000/svg">
<g clip-path="url(#clip0_12_1445)">
<path d="M64 0H0V64H64V0Z" fill="#790FFF"/>
<rect x="6.39999" y="6.4" width="6.4" height="6.4" fill="#22A5FF"/>
<rect x="12.8" y="6.4" width="6.4" height="6.4" fill="#22A5FF"/>
<rect x="19.2" y="6.4" width="6.4" height="6.4" fill="#22A5FF"/>
<rect x="25.6" y="6.4" width="6.4" height="6.4" fill="#22A5FF"/>
<rect x="32" y="6.4" width="6.4" height="6.4" fill="#22A5FF"/>
<rect x="38.4" y="6.4" width="6.4" height="6.4" fill="#22A5FF"/>
<rect x="38.4" y="12.8" width="6.4" height="6.4" fill="#22A5FF"/>
<rect x="38.4" y="19.2" width="6.4" height="6.4" fill="#22A5FF"/>
<rect x="38.4" y="25.6" width="6.4" height="6.4" fill="#22A5FF"/>
<rect x="38.4" y="32" width="6.4" height="6.4" fill="#22A5FF"/>
<rect x="38.4" y="38.4" width="6.4" height="6.4" fill="#22A5FF"/>
<rect x="32" y="38.4" width="6.4" height="6.4" fill="#22A5FF"/>
<rect x="6.39999" y="12.8" width="6.4" height="6.4" fill="#22A5FF"/>
<rect x="6.39999" y="19.2" width="6.4" height="6.4" fill="#22A5FF"/>
<rect x="6.39999" y="25.6" width="6.4" height="6.4" fill="#22A5FF"/>
<rect x="6.39999" y="32" width="6.4" height="6.4" fill="#22A5FF"/>
<rect x="6.39999" y="38.4" width="6.4" height="6.4" fill="#22A5FF"/>
<rect x="57.6" y="57.6" width="6.4" height="6.4" transform="rotate(-180 57.6 57.6)" fill="#F339FF"/>
<rect x="51.2" y="57.6" width="6.4" height="6.4" transform="rotate(-180 51.2 57.6)" fill="#F339FF"/>
<rect x="44.8" y="57.6" width="6.4" height="6.4" transform="rotate(-180 44.8 57.6)" fill="#F339FF"/>
<rect x="38.4" y="57.6" width="6.4" height="6.4" transform="rotate(-180 38.4 57.6)" fill="#F339FF"/>
<rect x="32" y="57.6" width="6.4" height="6.4" transform="rotate(-180 32 57.6)" fill="#F339FF"/>
<rect x="25.6" y="57.6" width="6.4" height="6.4" transform="rotate(-180 25.6 57.6)" fill="#F339FF"/>
<rect x="25.6" y="51.2" width="6.4" height="6.4" transform="rotate(-180 25.6 51.2)" fill="#F339FF"/>
<rect x="25.6" y="44.8" width="6.4" height="6.4" transform="rotate(-180 25.6 44.8)" fill="#F339FF"/>
<rect x="25.6" y="38.4" width="6.4" height="6.4" transform="rotate(-180 25.6 38.4)" fill="#F339FF"/>
<rect x="25.6" y="32" width="6.4" height="6.4" transform="rotate(-180 25.6 32)" fill="#F339FF"/>
<rect x="25.6" y="25.6" width="6.4" height="6.4" transform="rotate(-180 25.6 25.6)" fill="#F339FF"/>
<rect x="32" y="25.6" width="6.4" height="6.4" transform="rotate(-180 32 25.6)" fill="#F339FF"/>
<rect x="57.6" y="51.2" width="6.4" height="6.4" transform="rotate(-180 57.6 51.2)" fill="#F339FF"/>
<rect x="57.6" y="44.8" width="6.4" height="6.4" transform="rotate(-180 57.6 44.8)" fill="#F339FF"/>
<rect x="57.6" y="38.4" width="6.4" height="6.4" transform="rotate(-180 57.6 38.4)" fill="#F339FF"/>
<rect x="57.6" y="32" width="6.4" height="6.4" transform="rotate(-180 57.6 32)" fill="#F339FF"/>
<rect x="57.6" y="26.88" width="6.4" height="6.4" transform="rotate(-180 57.6 26.88)" fill="#F339FF"/>
</g>
<defs>
<clipPath id="clip0_12_1445">
<rect width="64" height="64" fill="white"/>
</clipPath>
</defs>
</svg>
