<svg width="264" height="32" viewBox="0 0 264 32" fill="none" xmlns="http://www.w3.org/2000/svg">
<path d="M248.495 24.1667V9.93706H250.274V12.9016C251.008 10.7558 252.815 9.7112 255.073 9.7112C258.292 9.7112 260.381 11.9981 260.381 15.5273V24.1667H258.603V15.7531C258.603 13.0992 257.106 11.3487 254.819 11.3487C252.165 11.3487 250.274 13.4945 250.274 16.5154V24.1667H248.495Z" fill="#E2E2E2"/>
<path d="M242.592 24.1667V4.40333H244.484V24.1667H242.592Z" fill="#E2E2E2"/>
<path d="M231.854 24.3925C227.336 24.3925 224.936 21.1175 224.936 17.0519C224.936 12.9863 227.336 9.7112 231.854 9.7112C233.943 9.7112 235.919 10.8405 236.794 12.5063V4.17746H238.573V24.1667H236.794V21.5974C235.919 23.2632 233.943 24.3925 231.854 24.3925ZM226.828 17.0519C226.828 20.4963 228.833 22.755 231.91 22.755C234.988 22.755 236.992 20.4963 236.992 17.0519C236.992 13.6074 234.988 11.3487 231.91 11.3487C228.833 11.3487 226.828 13.6074 226.828 17.0519Z" fill="#E2E2E2"/>
<path d="M216.875 24.3925C212.838 24.3925 209.902 21.1739 209.902 16.9389C209.902 12.6192 212.612 9.7112 216.621 9.7112C220.517 9.7112 223.143 12.3651 223.143 16.2896C223.143 16.5437 223.115 17.0236 223.087 17.2213H211.708C211.821 20.4116 214.024 22.755 216.875 22.755C219.388 22.755 220.969 21.6257 221.449 19.6776H223.312C222.861 22.5291 220.404 24.3925 216.875 24.3925ZM211.821 15.5837H221.28C221.082 12.958 219.331 11.3487 216.621 11.3487C214.024 11.3487 212.273 12.9298 211.821 15.5837Z" fill="#E2E2E2"/>
<path d="M198.229 24.1667V4.17746H200.036V16.2896L207.235 9.93706H209.663L203.395 15.4708L210.256 24.1667H207.941L202.012 16.7131L200.036 18.4635V24.1667H198.229Z" fill="#E2E2E2"/>
<path d="M182.753 24.1667V9.93706H184.532V12.9016C185.266 10.7558 187.073 9.7112 189.332 9.7112C192.55 9.7112 194.639 11.9981 194.639 15.5273V24.1667H192.861V15.7531C192.861 13.0992 191.364 11.3487 189.077 11.3487C186.424 11.3487 184.532 13.4945 184.532 16.5154V24.1667H182.753Z" fill="#E2E2E2"/>
<path d="M177.204 24.1667V9.93706H178.982V24.1667H177.204ZM177.006 7.05726V4.17746H179.152V7.05726H177.006Z" fill="#E2E2E2"/>
<path d="M163.36 24.1667V4.40333H165.252V22.4162H175.388V24.1667H163.36Z" fill="#E2E2E2"/>
<path d="M154.017 11.5746C150.883 11.5746 150.064 14.4544 150.064 18.0965V24.1667H148.285V9.93707H150.064V12.958C150.629 10.9817 151.815 9.93707 154.017 9.93707H155.88V11.5746H154.017Z" fill="#E2E2E2"/>
<path d="M138.412 24.3925C134.234 24.3925 131.241 21.3433 131.241 17.0519C131.241 12.7604 134.234 9.7112 138.412 9.7112C142.591 9.7112 145.583 12.7604 145.583 17.0519C145.583 21.3433 142.591 24.3925 138.412 24.3925ZM133.104 17.0519C133.104 20.3834 135.25 22.755 138.412 22.755C141.574 22.755 143.72 20.3834 143.72 17.0519C143.72 13.7203 141.574 11.3487 138.412 11.3487C135.25 11.3487 133.104 13.7203 133.104 17.0519Z" fill="#E2E2E2"/>
<path d="M124.75 24.1667V11.5746H121.7V9.93706H124.75V8.4407C124.75 5.815 126.359 4.17746 128.928 4.17746H131.046V5.815H128.9C127.46 5.815 126.528 6.80316 126.528 8.4407V9.93706H131.046V11.5746H126.528V24.1667H124.75Z" fill="#E2E2E2"/>
<path d="M54.3569 17C54.6628 17 54.8941 17.2743 54.8752 17.5796C54.8679 17.6958 54.8642 17.8125 54.8642 17.9297C54.8642 19.906 56.0781 21.2617 57.998 21.2617C60.134 21.2615 61.805 19.5774 62.4371 17.5638C62.5271 17.2772 62.3023 17 62.0019 17C61.7015 17 61.4785 16.7232 61.5116 16.4247C61.5342 16.221 61.5459 16.0165 61.5459 15.8125C61.5459 13.8363 60.3602 12.5089 58.4687 12.5088C56.2732 12.5088 54.4756 14.2495 53.8954 16.4295C53.8167 16.7251 54.051 17 54.3569 17ZM70.6323 17C70.9382 17 71.1693 17.2743 71.1499 17.5795C71.1425 17.6957 71.1386 17.8125 71.1386 17.9297C71.1386 19.9059 72.3528 21.2616 74.2724 21.2617C76.4084 21.2616 78.0801 19.5777 78.7124 17.5642C78.8025 17.2774 78.5775 17 78.2768 17C77.9762 17 77.7531 16.723 77.7866 16.4242C77.8093 16.2207 77.8212 16.0164 77.8213 15.8125C77.8213 13.8364 76.6353 12.5091 74.7441 12.5088C72.5487 12.5088 70.751 14.2495 70.1708 16.4295C70.0921 16.7251 70.3264 17 70.6323 17ZM48.1006 22.6221C47.9465 23.4218 47.2461 23.9999 46.4316 24H44.7588C44.3337 24 44.2983 23.6883 44.333 23.5C44.3951 23.1605 43.8748 23.0012 43.6006 23.2109C42.7639 23.8515 41.6832 24.2255 40.4668 24.2256C37.7281 24.2256 35.8642 22.2493 36.1748 19.793C36.2758 18.8471 36.6135 18.06 37.1236 17.428C37.2555 17.2645 37.1461 17 36.936 17C36.7259 17 36.6311 16.7511 36.8006 16.6269C37.8549 15.8544 39.272 15.4737 40.7959 15.4736H43.958C44.6918 15.4735 44.9748 15.0215 45.0595 14.4287C45.2006 13.1302 44.1839 12.1417 42.4902 12.1416C41.1837 12.1416 40.2954 12.6782 39.7812 13.4033C39.3706 13.9824 38.7909 14.5135 38.081 14.5137H37.6338C36.714 14.5137 36.0066 13.6729 36.4521 12.8682C37.5223 10.9351 39.8746 9.54495 42.7724 9.54492C46.4708 9.54505 49.0116 11.8314 48.3906 15.0498L48.1258 16.4271C48.0686 16.7243 48.2964 17 48.599 17C48.9017 17 49.1295 17.2758 49.0723 17.573L48.1006 22.6221ZM101.274 17C101.579 17 101.81 17.2745 101.787 17.5786C101.777 17.724 101.771 17.8695 101.771 18.0146C101.772 20.0191 102.929 21.2334 104.877 21.2334C107.147 21.2332 108.776 19.5621 109.398 17.5645C109.487 17.2774 109.262 17 108.961 17C108.661 17 108.437 16.723 108.471 16.4243C108.497 16.2018 108.51 15.9784 108.51 15.7559C108.51 13.7514 107.324 12.5372 105.376 12.5371C103.021 12.5371 101.375 14.335 100.815 16.4305C100.737 16.7251 100.969 17 101.274 17ZM20.4922 22.8838C20.1555 23.5669 19.4598 23.9999 18.6982 24H18.0449C17.0212 24 16.1626 23.227 16.0556 22.209L15.5696 17.5799C15.535 17.2503 15.2571 17 14.9257 17C14.5943 17 14.3164 16.7498 14.2818 16.4202L14.1504 15.1709C13.9933 13.6767 11.9801 13.3157 11.3134 14.6621L10.4151 16.477C10.2959 16.7178 10.4711 17 10.7397 17C11.0084 17 11.1836 17.2822 11.0644 17.5229L8.40915 22.8877C8.07177 23.5688 7.37726 23.9999 6.61715 24H5.98825C4.96508 24 4.10657 23.2275 3.99899 22.21L3.50955 17.5803C3.47468 17.2504 3.19644 17 2.86472 17C2.53299 17 2.25475 16.7496 2.21988 16.4197L1.10739 5.89453C1.01374 5.00865 1.70876 4.23633 2.59958 4.23633H3.3486C4.12304 4.23648 4.77097 4.82652 4.84274 5.59766L5.55368 13.2422C5.69383 14.7461 7.71828 15.1232 8.39059 13.7705L12.7158 5.06934C12.9692 4.55954 13.4893 4.23642 14.0586 4.23633H14.9482C15.7125 4.23648 16.3551 4.81164 16.4394 5.57129L17.2978 13.3154C17.464 14.8114 19.4845 15.1578 20.1396 13.8027L24.3515 5.08398C24.6019 4.56601 25.1268 4.2365 25.7021 4.23633H26.1045C27.2155 4.23654 27.941 5.40276 27.4502 6.39941L22.4835 16.4766C22.3646 16.7178 22.5401 17 22.809 17C23.0779 17 23.2534 17.2822 23.1345 17.5234L20.4922 22.8838ZM30.2046 17C30.5052 17 30.7298 17.2767 30.6693 17.5712C30.2633 19.5476 29.6747 22.6209 29.6718 22.6357C29.5151 23.4284 28.8196 23.9997 28.0117 24C26.9473 24 26.1465 23.0292 26.3496 21.9844L27.2071 17.5723C27.2648 17.2756 27.0376 17 26.7354 17C26.4331 17 26.2059 16.7243 26.2636 16.4277L27.3222 10.9844C27.4593 10.2796 28.0769 9.77051 28.7949 9.77051H30.5547C30.7867 9.77069 30.9624 9.98201 30.9189 10.21C30.8412 10.617 31.5341 10.9216 31.8564 10.6611C32.6287 10.037 33.5283 9.77051 34.6728 9.77051C35.4211 9.77067 36.0283 10.3776 36.0283 11.126V11.2246C36.0282 12.0274 35.3769 12.6785 34.5742 12.6787H33.5156C31.5515 12.6787 30.3529 14.1836 29.756 16.4319C29.6788 16.7225 29.9039 17 30.2046 17ZM42.3017 17.7607C40.8338 17.7607 39.6483 18.3815 39.5351 19.7363C39.4504 20.8374 40.2407 21.6562 41.6806 21.6562C43.5437 21.656 45.1251 20.2733 45.5205 18.1279C45.5637 17.9404 45.4209 17.7611 45.2285 17.7607H42.3017ZM90.0019 12.1416C88.7367 12.1417 87.7508 12.6706 87.0322 13.4697C86.3376 14.2425 87.0614 15.3037 88.1006 15.3037H91.666C92.4243 15.3035 93.1199 14.715 92.9101 13.9863C92.5847 12.8568 91.5725 12.1417 90.0019 12.1416ZM65.5473 17C65.8523 17 66.0846 17.2749 66.0157 17.572C65.1897 21.1288 62.3977 24.2254 58.2236 24.2256C56.6324 24.2256 53.5061 25.475 53.1982 27.0361L52.9306 28.3945C52.7745 29.1875 52.0787 29.7596 51.2705 29.7598C50.2063 29.7597 49.4067 28.7886 49.6103 27.7441L51.5925 17.5727C51.6503 17.2759 51.423 17 51.1206 17C50.8182 17 50.5909 16.7241 50.6487 16.4273L51.7099 10.9834C51.8473 10.2789 52.4649 9.77054 53.1826 9.77051H54.9404C55.1742 9.77069 55.3501 9.98323 55.3066 10.2129C55.2356 10.5854 55.7557 10.8654 56.0673 10.6494C57.0609 9.95962 58.3127 9.54495 59.6826 9.54492C62.9009 9.54507 65.1034 11.9443 65.1035 15.3604C65.1035 15.7143 65.0838 16.0692 65.0449 16.4223C65.0116 16.7254 65.2423 17 65.5473 17ZM81.8217 17C82.073 17 82.2823 16.8099 82.3209 16.5616C82.9266 12.656 86.0045 9.54501 90.3691 9.54492C94.3654 9.54505 96.7545 12.1435 96.33 15.8164C96.3077 16.5756 96.2194 17.5902 95.9062 17.5908H86.8779C86.7687 17.5908 86.6797 17.6799 86.6797 17.7891C86.6798 20.0192 87.9222 21.3457 90.1806 21.3457C91.3504 21.3456 92.2001 20.9697 92.7881 20.2861C93.2619 19.7353 93.875 19.257 94.6015 19.2568C95.7746 19.257 96.6217 20.3955 95.9355 21.3467C94.66 23.1135 92.4875 24.2255 89.8984 24.2256C85.7764 24.2256 83.3769 21.4025 83.3769 17.9863C83.3769 17.82 83.3815 17.6546 83.3906 17.4902C83.4122 17.2262 83.2037 17 82.9388 17H82.8538C82.5947 17 82.3749 17.1871 82.3197 17.4403C81.5327 21.0519 78.7243 24.2253 74.499 24.2256C72.9078 24.2256 69.7804 25.475 69.4726 27.0361L69.205 28.3945C69.0489 29.1874 68.3539 29.7595 67.5459 29.7598C66.4817 29.7598 65.6812 28.7887 65.8847 27.7441L67.867 17.5722C67.9248 17.2756 67.6976 17 67.3955 17C67.0933 17 66.8662 16.7243 66.924 16.4277L67.9853 10.9834C68.1227 10.2789 68.7402 9.77051 69.458 9.77051H71.2158C71.4493 9.77093 71.6254 9.98339 71.582 10.2129C71.511 10.5855 72.0311 10.8658 72.3427 10.6494C73.3363 9.9596 74.588 9.54492 75.958 9.54492C79.1762 9.54521 81.3788 11.9444 81.3789 15.3604C81.3789 15.7146 81.3592 16.0699 81.3202 16.4233C81.2868 16.7259 81.5172 17 81.8217 17ZM111.665 22.6289C111.51 23.425 110.813 23.9999 110.002 24H108.389C108.163 24 107.993 23.7947 108.035 23.5732C108.104 23.2097 107.578 22.9295 107.273 23.1396C106.277 23.828 105.019 24.2255 103.775 24.2256C100.472 24.2254 98.2988 21.769 98.2988 18.4658C98.2988 18.1696 98.3139 17.8735 98.3428 17.5787C98.3726 17.2738 98.1398 17 97.8335 17C97.5271 17 97.2925 16.7259 97.3586 16.4268C98.174 12.7402 101.155 9.54395 105.433 9.54395C106.869 9.54373 109.775 8.53401 110.055 7.125L110.501 4.87988C110.64 4.17784 111.256 3.67192 111.972 3.67188H112.365C113.308 3.67218 114.018 4.53233 113.838 5.45801L111.704 16.4272C111.646 16.7241 111.874 17 112.176 17C112.479 17 112.706 17.2759 112.648 17.5728L111.665 22.6289Z" fill="#E2E2E2"/>
</svg>
